<?xml version="1.0" encoding="UTF-8" standalone="no"?>
<svg
   version="1.1"
   viewBox="0 0 3200 2208"
   width="1280"
   height="1280"
   id="svg4"
   sodipodi:docname="2jhJGAUMizpc3WudT2OlkdVnrv1.svg"
   inkscape:export-filename="web-icon.svg"
   inkscape:export-xdpi="96"
   inkscape:export-ydpi="96"
   xmlns:inkscape="http://www.inkscape.org/namespaces/inkscape"
   xmlns:sodipodi="http://sodipodi.sourceforge.net/DTD/sodipodi-0.dtd"
   xmlns="http://www.w3.org/2000/svg"
   xmlns:svg="http://www.w3.org/2000/svg">
  <defs
     id="defs4" />
  <sodipodi:namedview
     id="namedview4"
     pagecolor="#ffffff"
     bordercolor="#000000"
     borderopacity="0.25"
     inkscape:showpageshadow="2"
     inkscape:pageopacity="0.0"
     inkscape:pagecheckerboard="0"
     inkscape:deskcolor="#d1d1d1" />
  <path
     d="m 2133,0 h 420 l -8,16 -9,17 -13,23 -13,24 -10,18 -14,25 -16,29 -13,23 -6,11 -13,24 -13,23 -14,26 -13,23 -16,29 -15,27 -16,29 -15,27 -6,11 -13,23 -9,17 -13,23 -13,24 -13,23 -13,24 -13,23 -13,24 -9,16 -20,36 -12,22 -50,90 -16,29 -15,27 -16,29 -7,12 -6,11 -14,26 -55,99 -16,29 -13,23 -6,11 -13,24 -13,23 -13,24 -13,23 -13,24 -10,18 -14,25 -15,27 -2,4 v 6 l 16,29 13,23 13,24 9,16 30,54 16,29 10,17 5,10 3,-4 9,-17 13,-23 32,-58 13,-23 13,-24 16,-29 13,-23 14,-26 13,-23 13,-24 13,-23 16,-29 13,-23 9,-17 10,-18 14,-25 13,-24 13,-23 32,-58 13,-23 8,-14 6,-12 13,-23 13,-24 35,-63 16,-29 13,-23 13,-24 11,-19 6,-11 15,-28 9,-16 15,-27 13,-24 12,-21 13,-24 9,-16 15,-27 13,-23 9,-17 13,-23 8,-14 6,-11 10,-19 13,-23 32,-58 13,-23 9,-17 10,-18 14,-25 32,-58 30,-54 16,-29 13,-23 13,-24 10,-18 4,-7 h 418 v 6 l -14,24 -10,19 -13,23 -13,24 -13,23 -13,24 -13,23 -13,24 -9,16 -12,21 -6,11 -14,26 -40,72 -12,22 -40,72 -12,22 -50,90 -16,29 -15,27 -6,11 -13,23 -9,17 -13,23 -13,24 -13,23 -13,24 -13,23 -13,24 -9,16 -25,45 -12,22 -13,23 -13,24 -10,18 -14,25 -16,29 -13,23 -6,11 -13,24 -13,23 -13,24 -13,23 -13,24 -13,23 -13,24 -7,12 -6,11 -13,24 -13,23 -13,24 -13,23 -13,24 -50,90 -6,11 -13,23 -9,17 -13,23 -13,24 -13,23 -16,29 -12,22 -45,81 -12,22 -13,23 -13,24 -10,18 -14,25 -16,29 -13,23 -6,11 -13,24 -13,23 -13,24 -13,23 -13,24 -10,18 -16,29 -13,23 -13,24 -9,16 -12,21 -6,11 -14,26 -15,27 -13,23 -8,15 -2,4 h -2 l -6,-10 -30,-54 -16,-29 -45,-81 -32,-58 -15,-27 -16,-29 -15,-27 -16,-29 -30,-54 -13,-24 -13,-23 -12,-22 -10,-18 -16,-29 -15,-27 -16,-29 -7,-13 -2,-1 -2,5 -8,15 -13,23 -9,17 -13,23 -13,24 -13,23 -13,24 -13,23 -13,24 -9,16 -12,21 -6,11 -14,26 -50,90 -16,29 -15,27 -6,11 -13,23 -7,13 -13,23 -9,17 -13,23 -13,24 -8,14 -8,15 -5,-5 -85,-153 -16,-29 -13,-23 -14,-26 -13,-23 -13,-24 -10,-18 -14,-25 -16,-29 -15,-27 -32,-58 -15,-27 -6,-11 1,-5 7,-12 6,-11 16,-30 13,-23 32,-58 13,-23 8,-14 6,-12 10,-17 6,-11 15,-28 9,-16 16,-29 25,-45 16,-29 8,-14 4,-2 12,22 16,29 26,46 2,1 2,-6 25,-45 16,-29 25,-45 16,-29 13,-23 9,-17 13,-23 13,-24 13,-23 14,-26 13,-23 16,-29 13,-23 9,-17 10,-18 14,-25 13,-24 13,-23 32,-58 13,-23 14,-26 13,-23 13,-24 35,-63 16,-29 13,-23 13,-24 11,-19 6,-11 15,-28 9,-16 32,-58 13,-23 12,-22 13,-23 14,-26 13,-23 13,-24 55,-99 16,-29 13,-23 9,-17 10,-18 11,-19 6,-11 10,-19 13,-23 32,-58 13,-23 13,-24 14,-25 9,-16 z"
     id="path1" />
  <path
     d="m 1504,0 h 420 l -8,16 -15,28 -10,18 -9,16 -16,29 -15,27 -16,29 -15,27 -6,11 -13,23 -9,17 -13,23 -13,24 -13,23 -16,29 -12,22 -14,25 -15,27 -6,11 -13,23 -9,17 -13,23 -13,24 -13,23 -13,24 -13,23 -13,24 -9,16 -20,36 -12,22 -50,90 -16,29 -15,27 -6,11 -13,23 -9,17 -13,23 -13,24 -9,16 -30,54 -16,29 -15,27 -6,11 -13,23 -9,17 -13,23 -13,24 -13,23 -16,29 -15,27 -16,29 -13,23 -6,11 -14,26 -10,18 -9,16 -16,29 -15,27 -16,29 -13,23 -8,15 -13,23 -7,13 -13,23 -9,17 -13,23 -13,24 -10,18 -11,19 -6,11 -15,28 -9,16 -10,18 -12,21 -6,11 -14,26 -40,72 -16,29 -15,27 -13,23 -6,11 -13,24 -13,23 -14,26 -13,23 -16,29 -15,27 -13,24 -9,16 -20,36 -12,21 -6,11 -10,18 h -3 l -13,-24 -9,-16 -15,-27 -13,-23 -14,-26 -13,-23 -32,-58 -10,-18 -16,-29 -30,-54 -16,-29 -15,-27 -12,-22 -14,-25 -16,-29 -13,-23 -14,-26 -13,-23 -48,-87 -15,-27 -16,-29 -10,-18 -16,-29 -30,-54 -16,-29 -15,-27 -13,-24 -13,-23 -32,-58 -30,-54 -16,-29 -15,-27 -16,-29 -15,-27 -32,-58 -15,-27 -16,-29 -15,-27 -16,-29 -11,-20 -3,-4 1,-5 214,1 h 203 l 4,5 13,24 13,23 8,14 6,11 15,28 9,16 20,36 6,10 6,12 9,16 15,27 32,58 15,27 16,29 13,23 13,24 13,23 13,24 13,23 13,24 18,32 1,3 3,-1 13,-24 9,-16 15,-27 16,-29 13,-23 13,-24 11,-19 6,-11 15,-28 9,-16 16,-29 25,-45 16,-29 13,-23 14,-26 10,-17 6,-11 15,-28 9,-16 32,-58 25,-45 13,-23 9,-17 13,-23 13,-24 13,-23 13,-24 13,-23 13,-24 9,-16 15,-27 12,-22 14,-25 32,-58 30,-54 16,-29 13,-23 9,-17 10,-18 14,-25 13,-24 13,-23 32,-58 13,-23 13,-24 11,-19 6,-11 15,-28 9,-16 16,-29 25,-45 16,-29 13,-23 13,-24 10,-18 z"
     id="path2"
     style="fill:#8c52ff;fill-opacity:1" />
  <path
     d="m 112,0 h 420 l 14,26 30,54 12,21 6,11 15,28 9,16 10,18 12,21 6,11 15,28 9,16 20,36 6,10 6,12 9,16 15,27 32,58 15,27 16,29 13,23 13,24 13,23 13,24 13,23 13,24 13,23 13,24 13,23 13,24 9,16 12,22 14,25 15,27 -1,5 -11,20 -6,11 -13,24 -13,23 -14,26 -26,46 -6,11 -15,28 -9,16 -6,10 -6,11 -10,18 -6,11 -10,19 -13,23 -13,24 -12,21 -18,33 -4,-2 -12,-23 -9,-16 -30,-54 -16,-29 -25,-45 -32,-58 -10,-18 -16,-29 -30,-54 -16,-29 -15,-27 -13,-24 -12,-21 -13,-24 -55,-99 -13,-24 -9,-16 L 416,551 400,522 387,499 373,473 360,450 312,363 299,340 285,314 272,291 259,267 246,244 214,186 199,159 167,101 152,74 136,45 121,18 112,2 Z"
     id="path3" />
  <path
     d="M 3199,7"
     id="path4" />
</svg>
